<?xml version="1.0" encoding="UTF-8"?>
<svg xmlns="http://www.w3.org/2000/svg" xmlns:xlink="http://www.w3.org/1999/xlink" width="0" height="0">

  <symbol fill="none" xmlns="http://www.w3.org/2000/svg" viewBox="0 0 70 70" id="cards-icon">
    <rect x="11" y="8" width="59.1111" height="43.5556" rx="8" fill="url(#paint0_linear_869_81)"></rect>
    <rect y="17" width="61.0714" height="45" rx="8" fill="url(#paint1_linear_869_81)"></rect>
    <path d="M11.4673 25.9563C10.9353 25.3911 10.1825 25.0361 9.3449 25.0361C7.73406 25.0361 6.42822 26.342 6.42822 27.9528C6.42822 28.7903 6.78308 29.5432 7.34838 30.0752L13.6401 36.3669C14.1721 36.9321 14.925 37.2871 15.7625 37.2871C17.3733 37.2871 18.6792 35.9812 18.6792 34.3704C18.6792 33.5329 18.3242 32.78 17.759 32.248L11.4673 25.9563Z" fill="url(#paint2_linear_869_81)"></path>
    <path d="M8.91668 30.8695C10.5275 30.8695 11.8334 29.5637 11.8334 27.9528C11.8334 26.342 10.5275 25.0361 8.91668 25.0361C7.30584 25.0361 6 26.342 6 27.9528C6 29.5637 7.30584 30.8695 8.91668 30.8695Z" fill="#F8D57E"></path>
    <path d="M19.7175 25.9563C19.1856 25.3911 18.4327 25.0361 17.5951 25.0361C15.9843 25.0361 14.6785 26.342 14.6785 27.9528C14.6785 28.7903 15.0333 29.5432 15.5986 30.0752L21.8904 36.3669C22.4224 36.9321 23.1752 37.2871 24.0127 37.2871C25.6236 37.2871 26.9294 35.9812 26.9294 34.3704C26.9294 33.5329 26.5744 32.78 26.0092 32.248L19.7175 25.9563Z" fill="url(#paint3_linear_869_81)"></path>
    <path d="M17.5951 30.8695C19.206 30.8695 20.5118 29.5637 20.5118 27.9528C20.5118 26.342 19.206 25.0361 17.5951 25.0361C15.9843 25.0361 14.6785 26.342 14.6785 27.9528C14.6785 29.5637 15.9843 30.8695 17.5951 30.8695Z" fill="#F8D57E"></path>
    <path d="M27.9641 25.9563C27.4322 25.3911 26.6793 25.0361 25.8417 25.0361C24.2309 25.0361 22.925 26.342 22.925 27.9528C22.925 28.7903 23.28 29.5432 23.8452 30.0752L30.1369 36.3669C30.669 36.9321 31.4218 37.2871 32.2593 37.2871C33.8702 37.2871 35.176 35.9812 35.176 34.3704C35.176 33.5329 34.821 32.78 34.2558 32.248L27.9641 25.9563Z" fill="url(#paint4_linear_869_81)"></path>
    <path d="M25.8417 30.8695C27.4526 30.8695 28.7584 29.5637 28.7584 27.9528C28.7584 26.342 27.4526 25.0361 25.8417 25.0361C24.2309 25.0361 22.925 26.342 22.925 27.9528C22.925 29.5637 24.2309 30.8695 25.8417 30.8695Z" fill="#F8D57E"></path>
    <defs>
      <linearGradient id="paint0_linear_869_81" x1="11" y1="8" x2="70.1111" y2="51.5556" gradientUnits="userSpaceOnUse">
        <stop stop-color="#A7F4CE"></stop>
        <stop offset="1" stop-color="#7DE5AE"></stop>
      </linearGradient>
      <linearGradient id="paint1_linear_869_81" x1="0" y1="17" x2="61.0714" y2="62" gradientUnits="userSpaceOnUse">
        <stop stop-color="#3D81FF"></stop>
        <stop offset="1" stop-color="#65E2FD"></stop>
      </linearGradient>
      <linearGradient id="paint2_linear_869_81" x1="15.8331" y1="34.4416" x2="3.21835" y2="21.8272" gradientUnits="userSpaceOnUse">
        <stop stop-color="#00A2F3" stop-opacity="0"></stop>
        <stop offset="1" stop-color="#0075CD"></stop>
      </linearGradient>
      <linearGradient id="paint3_linear_869_81" x1="24.0827" y1="34.4413" x2="11.4684" y2="21.8269" gradientUnits="userSpaceOnUse">
        <stop stop-color="#00A2F3" stop-opacity="0"></stop>
        <stop offset="1" stop-color="#0075CD"></stop>
      </linearGradient>
      <linearGradient id="paint4_linear_869_81" x1="32.3293" y1="34.4414" x2="19.715" y2="21.827" gradientUnits="userSpaceOnUse">
        <stop stop-color="#00A2F3" stop-opacity="0"></stop>
        <stop offset="1" stop-color="#0075CD"></stop>
      </linearGradient>
    </defs>
  </symbol>

  <symbol fill="none" xmlns="http://www.w3.org/2000/svg" viewBox="0 0 70 70" id="coin-icon">
    <path d="M69.7056 34.4603C69.4147 15.1299 53.7881 -0.292106 34.8159 0.00419918C15.8368 0.300505 0.695061 16.2163 0.985985 35.5397C1.27691 54.8701 16.9035 70.2921 35.8757 69.9958C54.8548 69.6995 70.0035 53.7907 69.7056 34.4603Z" fill="url(#paint0_linear_854_93)"></path>
    <path d="M34.855 63C19.9431 63 7.85469 50.6878 7.85469 35.5C7.85469 20.3122 19.9431 8 34.855 8C49.7669 8 61.8553 20.3122 61.8553 35.5C61.8553 50.6878 49.7669 63 34.855 63Z" fill="#B897FD"></path>
    <path d="M33.535 22.8915L33.5651 21L37.1524 21.0503L37.1224 22.9417C40.2238 23.5676 41.782 25.7698 41.7219 29.2238L41.7068 30.0233L37.5583 29.9639L37.5783 28.9085C37.6084 27.0901 36.8218 26.3866 35.4289 26.3683C34.036 26.35 33.2243 27.0262 33.1943 28.8445C33.1041 34.0803 41.6718 34.455 41.5515 41.7239C41.4914 45.1778 39.8229 47.3708 36.7015 47.9099L36.6715 49.7648L33.0841 49.7146L33.1141 47.8597C29.9726 47.2338 28.4194 44.9951 28.4746 41.5411L28.5046 39.7958L32.6532 39.8552L32.6181 41.8563C32.588 43.6747 33.4548 44.3417 34.8477 44.36C36.2456 44.3783 37.1324 43.7387 37.1625 41.9203C37.2526 36.6845 28.685 36.3099 28.8052 29.041C28.8654 25.6281 30.4586 23.4671 33.535 22.8915Z" fill="#3B3B3B"></path>
    <defs>
      <linearGradient id="paint0_linear_854_93" x1="14.8461" y1="-5.26542e-07" x2="72.7575" y2="68.2318" gradientUnits="userSpaceOnUse">
        <stop stop-color="#BA99FD"></stop>
        <stop offset="1" stop-color="#CEC0FD"></stop>
      </linearGradient>
    </defs>
  </symbol>

  <symbol fill="none" xmlns="http://www.w3.org/2000/svg" viewBox="0 0 70 70" id="purse-icon">
    <path d="M64.3376 64.1761H5.66235C2.53514 64.1761 0 61.8689 0 59.023V14.5593C0 11.7134 2.53514 9.40625 5.66235 9.40625H64.3376C67.4649 9.40625 70 11.7134 70 14.5593V59.023C70 61.8689 67.4649 64.1761 64.3376 64.1761Z" fill="#F8D57E"></path>
    <path d="M63.0266 62.958H6.96831C3.98052 62.958 1.55835 60.7537 1.55835 58.0347V15.5542C1.55835 12.8352 3.98037 10.6309 6.96831 10.6309H63.0265C66.0143 10.6309 68.4364 12.835 68.4364 15.5542V58.0348C68.4366 60.7539 66.0144 62.958 63.0266 62.958Z" fill="#E1C379"></path>
    <path d="M66.2037 23.796L52.0903 1.54965C51.1503 0.067757 49.068 -0.440016 47.4396 0.415706L2.94159 23.796H66.2037Z" fill="#009379"></path>
    <path d="M65.7627 20.9619C68.1028 20.9619 70 22.6887 70 24.8184V59.0244C70 61.8703 67.465 64.1776 64.3379 64.1777H5.66211C2.53493 64.1775 7.47289e-07 61.8702 0 59.0244V24.8184C0 22.6887 1.89716 20.9619 4.2373 20.9619H65.7627Z" fill="#FF6250"></path>
    <path d="M54.6648 69.9614L5.52624 64.7677C2.3762 64.4347 0 62.0067 0 59.1207V14.1826C0 15.1484 0.795171 15.9608 1.84904 16.0722L56.1059 21.807C59.256 22.1401 61.6322 24.568 61.6322 27.454V64.3145C61.6322 67.714 58.3753 70.3538 54.6648 69.9614Z" fill="#F8D57E"></path>
    <path d="M4.40411 21.1901C4.36295 21.1901 4.32118 21.188 4.27927 21.1839L2.03061 20.9588C1.40956 20.8966 0.961421 20.3883 1.02978 19.8232C1.09813 19.2582 1.65714 18.8508 2.27759 18.9124L4.52625 19.1375C5.1473 19.1997 5.59544 19.708 5.52709 20.273C5.46339 20.8001 4.97334 21.1901 4.40411 21.1901Z" fill="#F8D57E"></path>
    <path d="M50.6089 66.5614C50.5614 66.5614 50.5131 66.5585 50.4647 66.5531L46.0943 66.0474C45.4748 65.9757 45.0361 65.4603 45.115 64.8962C45.1939 64.3324 45.7601 63.9355 46.3799 64.0049L50.7503 64.5106C51.3698 64.5823 51.8087 65.0977 51.7296 65.6618C51.6568 66.1816 51.17 66.5614 50.6089 66.5614ZM54.9106 66.0519C54.4864 66.0519 54.0794 65.8335 53.8867 65.4608C53.6203 64.9466 53.8626 64.3332 54.4278 64.091C55.5754 63.5989 56.4385 62.7826 56.7959 61.8513C57.0018 61.3148 57.6472 61.0318 58.2367 61.2189C58.8264 61.4063 59.1377 61.9934 58.9317 62.5301C58.3673 64.0009 57.1103 65.2168 55.392 65.9534C55.2362 66.0201 55.0723 66.0519 54.9106 66.0519ZM41.8683 65.55C41.8209 65.55 41.7725 65.5471 41.7241 65.5416L37.3538 65.0359C36.7342 64.9643 36.2954 64.4488 36.3744 63.8847C36.4533 63.3209 37.0195 62.9239 37.6394 62.9935L42.0097 63.4992C42.6293 63.5708 43.0681 64.0863 42.9891 64.6504C42.9162 65.17 42.4292 65.55 41.8683 65.55ZM33.1278 64.5384C33.0803 64.5384 33.0321 64.5355 32.9836 64.53L28.6132 64.0243C27.9936 63.9527 27.5548 63.4373 27.6338 62.8732C27.7127 62.3093 28.2791 61.9104 28.8988 61.9819L33.2691 62.4876C33.8887 62.5592 34.3275 63.0747 34.2485 63.6388C34.1756 64.1584 33.6886 64.5384 33.1278 64.5384ZM24.3869 63.5268C24.3394 63.5268 24.2912 63.5239 24.2427 63.5185L19.8722 63.0126C19.2525 62.9408 18.8138 62.4255 18.8928 61.8614C18.9717 61.2975 19.5382 60.9004 20.1578 60.9702L24.5283 61.476C25.148 61.5478 25.5866 62.0631 25.5076 62.6272C25.4351 63.1471 24.948 63.5268 24.3869 63.5268ZM15.6463 62.5152C15.5989 62.5152 15.5506 62.5124 15.5021 62.5069L11.1316 62.001C10.5119 61.9292 10.0732 61.414 10.1522 60.8499C10.2311 60.2859 10.7976 59.8887 11.4172 59.9586L15.7877 60.4644C16.4074 60.5362 16.8461 61.0515 16.767 61.6156C16.6943 62.1356 16.2074 62.5152 15.6463 62.5152ZM58.1176 59.2374C57.4928 59.2374 56.9865 58.7767 56.9865 58.208V54.1988C56.9865 53.6301 57.4928 53.1694 58.1176 53.1694C58.7424 53.1694 59.2487 53.6301 59.2487 54.1988V58.208C59.2488 58.7767 58.7426 59.2374 58.1176 59.2374ZM58.1176 51.219C57.4928 51.219 56.9865 50.7582 56.9865 50.1896V46.1803C56.9865 45.6117 57.4928 45.151 58.1176 45.151C58.7424 45.151 59.2487 45.6117 59.2487 46.1803V50.1896C59.2488 50.7581 58.7426 51.219 58.1176 51.219ZM58.1176 43.2004C57.4928 43.2004 56.9865 42.7397 56.9865 42.1711V38.1618C56.9865 37.5932 57.4928 37.1324 58.1176 37.1324C58.7424 37.1324 59.2487 37.5932 59.2487 38.1618V42.1711C59.2488 42.7395 58.7426 43.2004 58.1176 43.2004ZM58.1176 35.1819C57.4928 35.1819 56.9865 34.7211 56.9865 34.1525V30.1432C56.9865 29.5746 57.4928 29.1139 58.1176 29.1139C58.7424 29.1139 59.2487 29.5746 59.2487 30.1432V34.1525C59.2488 34.721 58.7426 35.1819 58.1176 35.1819ZM56.5357 27.5742C56.2564 27.5742 55.9765 27.4805 55.7579 27.292C54.9195 26.569 53.7559 26.1084 52.4812 25.9948L52.4513 25.9919C51.8301 25.9311 51.3808 25.4234 51.4478 24.8582C51.5147 24.2929 52.0723 23.8838 52.6935 23.945L52.7127 23.9469C54.4745 24.104 56.1123 24.7616 57.314 25.7975C57.7676 26.1885 57.7868 26.8401 57.3571 27.2529C57.1345 27.4663 56.8354 27.5742 56.5357 27.5742ZM48.1944 25.5597C48.1532 25.5597 48.1115 25.5576 48.0696 25.5534L43.6905 25.1153C43.0696 25.0531 42.6213 24.5447 42.6897 23.9797C42.758 23.4146 43.317 23.0079 43.9375 23.0689L48.3165 23.507C48.9375 23.5693 49.3857 24.0776 49.3174 24.6426C49.2538 25.1695 48.7636 25.5597 48.1944 25.5597ZM39.4364 24.6834C39.3952 24.6834 39.3535 24.6812 39.3116 24.6771L34.9323 24.2389C34.3114 24.1767 33.8632 23.6684 33.9315 23.1033C33.9997 22.5381 34.5596 22.131 35.1793 22.1925L39.5585 22.6307C40.1795 22.6929 40.6277 23.2012 40.5594 23.7663C40.4957 24.2933 40.0056 24.6834 39.4364 24.6834ZM30.678 23.8071C30.6368 23.8071 30.595 23.805 30.5531 23.8009L26.174 23.3627C25.5531 23.3005 25.1049 22.7921 25.1732 22.2271C25.2414 21.662 25.8001 21.2549 26.421 21.3163L30.8001 21.7544C31.421 21.8167 31.8693 22.325 31.8009 22.89C31.7374 23.4169 31.2473 23.8071 30.678 23.8071ZM21.9197 22.9309C21.8785 22.9309 21.8367 22.9287 21.7948 22.9246L17.4157 22.4864C16.7947 22.4242 16.3465 21.9159 16.4149 21.3509C16.4831 20.7859 17.0412 20.3789 17.6627 20.44L22.0418 20.8782C22.6627 20.9404 23.111 21.4487 23.0426 22.0138C22.9792 22.5407 22.489 22.9309 21.9197 22.9309ZM13.1614 22.0545C13.1202 22.0545 13.0784 22.0524 13.0365 22.0483L8.65744 21.6101C8.03654 21.5479 7.58825 21.0395 7.65661 20.4745C7.72496 19.9096 8.28322 19.5027 8.90442 19.5637L13.2835 20.0018C13.9046 20.0641 14.3527 20.5724 14.2843 21.1374C14.2208 21.6643 13.7306 22.0545 13.1614 22.0545Z" fill="#F8D57E"></path>
    <path d="M6.89861 61.5101C6.85114 61.5101 6.80307 61.5074 6.75454 61.5018L4.51025 61.2421C3.89055 61.1705 3.45172 60.6551 3.53074 60.0911C3.60947 59.5271 4.17583 59.1282 4.79554 59.1997L7.03983 59.4593C7.65953 59.531 8.09836 60.0464 8.01934 60.6104C7.94662 61.1303 7.45958 61.5101 6.89861 61.5101Z" fill="#F8D57E"></path>
    <path d="M48.4534 7.66878L41.2141 11.2538C40.2711 11.7207 39.0907 11.4037 38.5775 10.5455C38.0645 9.68729 38.4129 8.61309 39.3559 8.14606L46.5953 4.56116C47.5383 4.09426 48.7187 4.41131 49.2319 5.2695C49.7449 6.12754 49.3965 7.20188 48.4534 7.66878Z" fill="white"></path>
    <path d="M50.3634 51.6673C53.426 51.6673 55.9087 49.4079 55.9087 46.6208C55.9087 43.8336 53.426 41.5742 50.3634 41.5742C47.3008 41.5742 44.8181 43.8336 44.8181 46.6208C44.8181 49.4079 47.3008 51.6673 50.3634 51.6673Z" fill="url(#paint0_linear_854_102)"></path>
    <path d="M50.3601 50.1013C52.4737 50.1013 54.1871 48.542 54.1871 46.6185C54.1871 44.695 52.4737 43.1357 50.3601 43.1357C48.2465 43.1357 46.5331 44.695 46.5331 46.6185C46.5331 48.542 48.2465 50.1013 50.3601 50.1013Z" fill="url(#paint1_linear_854_102)"></path>
    <defs>
      <linearGradient id="paint0_linear_854_102" x1="50.3622" y1="43.4536" x2="50.3622" y2="50.7513" gradientUnits="userSpaceOnUse">
        <stop stop-color="#FF4C54"></stop>
        <stop offset="1" stop-color="#BE3F45"></stop>
      </linearGradient>
      <linearGradient id="paint1_linear_854_102" x1="50.3589" y1="48.8055" x2="50.3589" y2="43.7697" gradientUnits="userSpaceOnUse">
        <stop stop-color="#FF4C54"></stop>
        <stop offset="1" stop-color="#BE3F45"></stop>
      </linearGradient>
    </defs>
  </symbol>

<symbol id="open-icon" width="24" height="24" viewBox="0 0 24 24" fill="none">
  <rect y="3" width="24" height="3" fill="currentColor"/>
  <rect y="11" width="24" height="3" fill="currentColor"/>
  <rect y="19" width="24" height="3" fill="currentColor"/>
</symbol>

<symbol id="close-icon" width="28" height="28" viewBox="0 0 28 28" fill="none">
  <line x1="4" y1="4" x2="24" y2="24" stroke="currentColor" stroke-width="3" />
  <line x1="4" y1="24" x2="24" y2="4" stroke="currentColor" stroke-width="3" />
</symbol>

<symbol fill="none" xmlns="http://www.w3.org/2000/svg" viewBox="0 0 20 20" id="user-rating-icon">
    <path d="M9.60326 1.81699C9.97008 1.07374 11.0299 1.07374 11.3967 1.81699L13.2063 5.48347C13.3519 5.77862 13.6335 5.98319 13.9592 6.03051L18.0054 6.61846C18.8256 6.73765 19.1531 7.74562 18.5596 8.32416L15.6318 11.1781C15.3961 11.4079 15.2885 11.7389 15.3442 12.0632L16.0353 16.0931C16.1754 16.91 15.318 17.533 14.5844 17.1473L10.9653 15.2446C10.674 15.0915 10.326 15.0915 10.0347 15.2446L6.41562 17.1473C5.68199 17.533 4.82456 16.91 4.96467 16.0931L5.65585 12.0632C5.71148 11.7389 5.60393 11.4079 5.36825 11.1781L2.44038 8.32416C1.84687 7.74562 2.17438 6.73765 2.9946 6.61846L7.04081 6.03051C7.36652 5.98319 7.64808 5.77862 7.79374 5.48347L9.60326 1.81699Z" fill="#2B2B2B"></path>
  </symbol>

</svg>





